<svg width="800" height="800" viewBox="-32 0 512 512" xmlns="http://www.w3.org/2000/svg">
  <defs>
    <linearGradient id="flame-gradient" x1="0%" y1="0%" x2="100%" y2="100%">
      <stop offset="0%" style="stop-color:#FF4D4D" />
      <stop offset="100%" style="stop-color:#FF9900" />
    </linearGradient>
  </defs>
  <path 
    fill="url(#flame-gradient)" 
    d="M324 51c-21 19-40 40-56 60-27-38-61-76-100-111C70 91 0 210 0 282 0 409 100 512 224 512s224-103 224-230c0-54-52-164-124-231zM304 392c-22 15-48 24-77 24-72 0-131-48-131-125 0-39 24-73 73-131 7 8 99 125 99 125l58-67c5 7 8 14 12 20 27 52 16 119-34 154z"
  />
</svg> 